SplineFontDB: 3.2
FontName: font1
FullName: font1
FamilyName: HexagonDrawing
Weight: Regular
ItalicAngle: 0
UnderlinePosition: 0
UnderlineWidth: 0
Ascent: 1556
Descent: 492
InvalidEm: 0
LayerCount: 2
Layer: 0 0 "Back" 1
Layer: 1 0 "Fore" 0
HasVMetrics: 1
XUID: [1021 411 321256273 16716364]
OS2Version: 0
OS2_WeightWidthSlopeOnly: 0
OS2_UseTypoMetrics: 0
CreationTime: 1715259251
ModificationTime: 1715259292
PfmFamily: 17
TTFWeight: 400
TTFWidth: 5
LineGap: 184
VLineGap: 184
OS2TypoAscent: 0
OS2TypoAOffset: 1
OS2TypoDescent: 0
OS2TypoDOffset: 1
OS2TypoLinegap: 184
OS2WinAscent: 0
OS2WinAOffset: 1
OS2WinDescent: 0
OS2WinDOffset: 1
HheadAscent: 0
HheadAOffset: 1
HheadDescent: 0
HheadDOffset: 1
OS2Vendor: 'PfEd'
DEI: 91125
Encoding: Original
UnicodeInterp: none
NameList: AGL For New Fonts
DisplaySize: -48
AntiAlias: 1
FitToEm: 0
WinInfo: 0 38 14
BeginChars: 74 74

StartChar: a
Encoding: 1 97 1
Width: 1233
VWidth: 1024
Flags: HW
LayerCount: 2
Fore
SplineSet
85.944675 1938 m 1
 664.213 782.0625 l 1
 1232.998 782.0625 l 1
 1232.998 627.7872 l 1
 663.75863 627.7872 l 1
 85.79322 -528 l 1
 0 -528 l 1
 0 -355.5125 l 1
 530.55721 705.301 l 1
 0 1765.5125 l 1
 0 1938 l 1
 85.944675 1938 l 1
EndSplineSet
EndChar

StartChar: b
Encoding: 2 98 2
Width: 1233
VWidth: 1024
Flags: HW
LayerCount: 2
Fore
SplineSet
616.15008 626.8721 m 2
 -1.00001 626.8721 l 1
 -1.00001 781.2729 l 1
 568.40007 781.2729 l 1
 1146.8395 1938 l 1
 1233 1938 l 1
 1233 1765.0708 l 1
 1233 1765.0708 685.033260831 669.726851176 684.99275 669.6524 c 0
 672.39381024 644.323804274 646.317326685 626.957399863 616.15008 626.8721 c 2
EndSplineSet
EndChar

StartChar: 
Encoding: 3 99 3
Width: 1233
VWidth: 1024
Flags: HW
LayerCount: 2
Fore
SplineSet
616.84987 782.733 m 2
 1234 782.733 l 1
 1234 628.332 l 1
 664.59988 628.332 l 1
 86.160474 -528.3953 l 1
 0 -528.3953 l 1
 0 -355.4661 l 1
 0 -355.4661 547.966689063 739.878248752 548.0072 739.9527 c 0
 560.606143477 765.281297659 586.682625811 782.647701772 616.84987 782.733 c 2
EndSplineSet
EndChar

StartChar: 
Encoding: 4 100 4
Width: 1233
VWidth: 1024
Flags: HW
LayerCount: 2
Fore
SplineSet
616.15005 782.7326 m 2
 646.317323356 782.647288171 672.393823236 765.28084104 684.99274 739.9522 c 0
 685.033250082 739.877749165 1233 -355.4661 1233 -355.4661 c 1
 1233 -528.3953 l 1
 1146.8394 -528.3953 l 1
 568.40006 628.3317 l 1
 -1.00004 628.3317 l 1
 -1.00004 782.7326 l 1
 616.15005 782.7326 l 2
EndSplineSet
EndChar

StartChar: 
Encoding: 5 101 5
Width: 1233
VWidth: 1024
Flags: HW
LayerCount: 2
Fore
SplineSet
1146.4552 1938 m 1
 1233 1938 l 1
 1233 1765.2115 l 1
 702.44222 705.3011 l 1
 1233 -355.2112 l 1
 1233 -527.9999 l 1
 1146.7552 -527.9999 l 1
 1146.7552 -527.9999 547.71658 670.682054015 547.71658 670.5328 c 1
 542.562220448 680.869537709 539.662217672 692.673165172 539.662217672 704.999527008 c 0
 539.662217672 717.325888844 542.562220448 728.980262291 547.71658 739.317 c 2
 1146.4552 1938 l 1
EndSplineSet
EndChar

StartChar: 
Encoding: 6 102 6
Width: 1233
VWidth: 1024
Flags: HW
LayerCount: 2
Fore
SplineSet
86.544837 1938 m 1
 685.284 739.3171 l 2
 690.438379145 728.980349844 693.338393513 717.325958768 693.338393513 704.999577175 c 0
 693.338393513 692.673195582 690.438379145 680.869550156 685.284 670.5328 c 1
 685.284 670.68205435 86.244839 -527.9999 86.244839 -527.9999 c 1
 0 -527.9999 l 1
 0 -355.2112 l 1
 530.55824 705.301 l 1
 0 1765.2115 l 1
 0 1938 l 1
 86.544837 1938 l 1
EndSplineSet
EndChar

StartChar: 
Encoding: 7 103 7
Width: 1233
VWidth: 1024
Flags: HW
LayerCount: 2
Fore
SplineSet
85.944675 1938 m 1
 664.213 782.0625 l 1
 1232.998 782.0625 l 1
 1232.998 627.7872 l 1
 663.75863 627.7872 l 1
 85.79322 -528 l 1
 0 -528 l 1
 0 -355.5125 l 1
 530.55721 705.301 l 1
 0 1765.5125 l 1
 0 1938 l 1
 85.944675 1938 l 1
EndSplineSet
EndChar

StartChar: 
Encoding: 8 104 8
Width: 1233
VWidth: 1024
Flags: HW
LayerCount: 2
Fore
SplineSet
1147.0578 1937.6104 m 1
 1233.0026 1937.6104 l 1
 1233.0026 1765.1225 l 1
 702.44455 704.9086 l 1
 1233.0026 -355.9073 l 1
 1233.0026 -528.3953 l 1
 1147.2093 -528.3953 l 1
 569.2429 627.3945 l 1
 0.00264119 627.3945 l 1
 0.00264119 781.6702 l 1
 568.78854 781.6702 l 1
 1147.0578 1937.6104 l 1
EndSplineSet
EndChar

StartChar: 
Encoding: 9 105 9
Width: 1233
VWidth: 1024
Flags: HW
LayerCount: 2
Fore
SplineSet
616.84987 434.5107 m 2
 514.78536 434.4597 421.09263 491.7825 375.38017 583.037 c 2
 0 1334.1038 l 1
 0 1679.51 l 1
 513.21129 652.4797 l 2
 532.91643 613.1588 572.87183 588.1367 616.84987 588.1586 c 2
 1234 588.1586 l 1
 1234 434.5107 l 1
 616.84987 434.5107 l 2
736.45373 819.9859 m 2
 736.348394418 819.985476398 736.243009307 819.985264396 736.137575072 819.985264396 c 0
 706.175403259 819.985264396 680.232362837 837.029246228 667.46238 862.0131 c 0
 667.410466611 862.089929161 129.09205 1938 129.09205 1938 c 1
 301.41882 1938 l 1
 784.20373 973.634 l 1
 1234 973.634 l 1
 1234 819.9859 l 1
 736.45373 819.9859 l 2
EndSplineSet
EndChar

StartChar: 
Encoding: 10 106 10
Width: 1233
VWidth: 1024
Flags: HW
LayerCount: 2
Fore
SplineSet
616.15011 434.5104 m 2
 -1 434.5104 l 1
 -1 588.1585 l 1
 616.15011 588.1585 l 2
 660.12816 588.1366 700.08356 613.1587 719.7887 652.4795 c 2
 1233 1679.51 l 1
 1233 1334.1037 l 1
 857.61982 583.0369 l 2
 811.90736 491.7823 718.21463 434.4594 616.15011 434.5104 c 2
496.54627 819.9858 m 2
 -1 819.9858 l 1
 -1 973.6338 l 1
 448.79627 973.6338 l 1
 931.58117 1938 l 1
 1103.9079 1938 l 1
 1103.9079 1938 565.589524371 862.089729481 565.53761 862.0129 c 0
 552.767607542 837.029099915 526.824599093 819.985164216 496.862469504 819.985164216 c 0
 496.757020396 819.985164216 496.651620427 819.985376279 496.54627 819.9858 c 2
EndSplineSet
EndChar

StartChar: 
Encoding: 11 107 11
Width: 1233
VWidth: 1024
Flags: HW
LayerCount: 2
Fore
SplineSet
615.84989 975.0951 m 2
 1233 975.0951 l 1
 1233 821.4471 l 1
 615.84989 821.4471 l 2
 571.87185 821.4689 531.91646 796.4469 512.2113 757.1259 c 2
 -0.99994046 -269.905 l 1
 -0.99994046 75.5014 l 1
 374.38021 826.5687 l 2
 420.09266 917.8233 513.78539 975.1461 615.84989 975.0951 c 2
735.45373 589.6195 m 2
 1233 589.6195 l 1
 1233 435.9714 l 1
 783.20373 435.9714 l 1
 300.41887 -528.3953 l 1
 128.0921 -528.3953 l 1
 128.0921 -528.3953 666.410476399 547.515470704 666.46239 547.5923 c 0
 679.232377258 572.576155319 705.175407331 589.620135642 735.137565705 589.620135642 c 0
 735.243003066 589.620135642 735.348391299 589.619923627 735.45373 589.6195 c 2
EndSplineSet
EndChar

StartChar: 
Encoding: 12 108 12
Width: 1233
VWidth: 1024
Flags: HW
LayerCount: 2
Fore
SplineSet
619.43739 975.0936 m 2
 721.50191 975.1446 815.19465 917.8218 860.90709 826.5673 c 2
 1236.2873 75.5006 l 1
 1236.2873 -269.9054 l 1
 723.07598 757.1245 l 2
 703.37083 796.4454 663.41544 821.4675 619.43739 821.4457 c 2
 2.28726 821.4457 l 1
 2.28726 975.0936 l 1
 619.43739 975.0936 l 2
499.83355 589.6183 m 2
 499.938897014 589.618723694 500.044293566 589.618935742 500.149739255 589.618935742 c 0
 530.111876383 589.618935742 556.054890641 572.574999112 568.82489 547.5912 c 0
 568.876804156 547.514370603 1107.1952 -528.3953 1107.1952 -528.3953 c 1
 934.86845 -528.3953 l 1
 452.08353 435.9704 l 1
 2.28726 435.9704 l 1
 2.28726 589.6183 l 1
 499.83355 589.6183 l 2
EndSplineSet
EndChar

StartChar: 
Encoding: 13 109 13
Width: 1233
VWidth: 1024
Flags: HW
LayerCount: 2
Fore
SplineSet
931.37179 1938 m 1
 1103.8615 1938 l 1
 513.10003 756.4754 l 2
 496.78951 723.8616 496.78951 686.1387 513.10003 653.5247 c 2
 1104.0099 -528.0001 l 1
 931.9747 -528.0001 l 1
 375.38095 583.9879 l 2
 337.42695 659.8782 337.42695 749.971 375.38095 825.8617 c 2
 931.37179 1938 l 1
1233 1678.8171 m 1
 1233 1334.745 l 1
 918.12823 705.3011 l 1
 1233 75.8568 l 1
 1233 -268.9678 l 1
 1233 -268.9678 763.3996 670.683727064 763.3996 670.5325 c 1
 758.151210957 680.943580201 755.194714589 692.855571014 755.194714589 705.301413532 c 0
 755.194714589 717.74725605 758.151210957 729.508019799 763.3996 739.9191 c 2
 1233 1678.8171 l 1
EndSplineSet
EndChar

StartChar: 
Encoding: 14 110 14
Width: 1233
VWidth: 1024
Flags: HW
LayerCount: 2
Fore
SplineSet
301.62827 1938 m 1
 857.61921 825.8617 l 2
 895.57323 749.971 895.57323 659.8781 857.61921 583.9878 c 2
 301.02536 -528.0001 l 1
 128.99006 -528.0001 l 1
 719.90011 653.5246 l 2
 736.21064 686.1387 736.21064 723.8616 719.90011 756.4753 c 2
 129.13861 1938 l 1
 301.62827 1938 l 1
0 1678.8171 m 1
 469.60049 739.919 l 2
 474.848879709 729.507919726 477.805376436 717.747155996 477.805376436 705.30131353 c 0
 477.805376436 692.855471065 474.848879709 680.943480274 469.60049 670.5324 c 1
 469.60049 670.683627061 0 -268.9678 0 -268.9678 c 1
 0 75.8567 l 1
 314.87183 705.301 l 1
 0 1334.745 l 1
 0 1678.8171 l 1
EndSplineSet
EndChar

StartChar: 
Encoding: 15 111 15
Width: 1233
VWidth: 1024
Flags: HW
LayerCount: 2
Fore
SplineSet
301.62755 1938 m 1
 783.11611 974.2673 l 1
 1232.9973 974.2673 l 1
 1232.9973 820.7441 l 1
 735.40211 820.7441 l 2
 735.374237476 820.744070337 735.346361506 820.744055501 735.318482099 820.744055501 c 0
 705.320988123 820.744055501 679.350598589 837.842957623 666.61844 862.8877 c 0
 666.571156201 862.964033927 129.28976 1938 129.28976 1938 c 1
 301.62755 1938 l 1
0 1678.9677 m 1
 469.75083 739.9189 l 2
 474.999191625 729.507832033 477.955671934 717.747085977 477.955671934 705.301263372 c 0
 477.955671934 692.855440767 474.999191625 680.943467967 469.75083 670.5324 c 1
 469.75083 670.683626744 0 -268.9679 0 -268.9679 c 1
 0 75.7064 l 1
 315.02255 705.301 l 1
 0 1334.8955 l 1
 0 1678.9677 l 1
1232.9973 589.2558 m 1
 1232.9973 435.5821 l 1
 783.11611 435.5821 l 1
 301.1761 -528.0001 l 1
 129.14121 -528.0001 l 1
 666.61844 547.1122 l 2
 679.350598589 572.156942377 705.368271922 589.332178425 735.365765898 589.332178425 c 0
 735.393645305 589.332178425 735.374237476 589.255829663 735.40211 589.2558 c 0
 735.449393799 589.332133927 1232.9973 589.2558 1232.9973 589.2558 c 1
EndSplineSet
EndChar

StartChar: 
Encoding: 16 112 16
Width: 1233
VWidth: 1024
Flags: HW
LayerCount: 2
Fore
SplineSet
931.12723 1938 m 1
 1103.6052 1938 l 1
 1103.6052 1938 565.886841746 862.092995637 565.83952 862.0166 c 0
 553.097016133 836.951536143 527.10549177 819.838755489 497.083583329 819.838755489 c 0
 497.055688778 819.838755489 497.027797666 819.838770329 496.99991 819.8388 c 2
 -0.99991955 819.8388 l 1
 -0.99991955 973.4863 l 1
 449.24711 973.4863 l 1
 931.12723 1938 l 1
1233 1678.7577 m 1
 1233 1334.4069 l 1
 917.72135 704.3022 l 1
 1233 74.1973 l 1
 1233 -270.7563 l 1
 1233 -270.7563 762.86722 669.656749521 762.86722 669.5054 c 1
 757.614578844 679.92491352 754.655687377 691.846552257 754.655687377 704.30247476 c 0
 754.655687377 716.758397264 757.614578844 728.52868648 762.86722 738.9482 c 2
 1233 1678.7577 l 1
-0.99991955 588.1628 m 1
 -0.99991955 588.1628 496.952587112 588.239195937 496.99991 588.1628 c 0
 497.027814928 588.162829708 497.008400419 588.239240503 497.03631224 588.239240503 c 0
 527.058180898 588.239240503 553.09699778 571.050109769 565.83952 545.9851 c 2
 1103.7538 -529.9984 l 1
 931.57906 -529.9984 l 1
 449.24711 434.3647 l 1
 -0.99991955 434.3647 l 1
 -0.99991955 588.1628 l 1
EndSplineSet
EndChar

StartChar: 
Encoding: 17 113 17
Width: 1233
VWidth: 1024
Flags: HW
LayerCount: 2
Fore
SplineSet
1103.4532 1938 m 1
 -1.0000335 -271.6733 l 1
 -1.0000335 73.734 l 1
 930.97775 1938 l 1
 1103.4532 1938 l 1
1233 1679.0574 m 1
 1233 1334.554 l 1
 300.27013 -530.0133 l 1
 128.09202 -530.0133 l 1
 1233 1679.0574 l 1
EndSplineSet
EndChar

StartChar: 
Encoding: 18 114 18
Width: 1233
VWidth: 1024
Flags: HW
LayerCount: 2
Fore
SplineSet
129.54679 1938 m 1
 302.02223 1938 l 1
 1234 73.7366 l 1
 1234 -271.6703 l 1
 129.54679 1938 l 1
0 1679.0578 m 1
 1104.908 -530.0099 l 1
 932.72985 -530.0099 l 1
 0 1334.5548 l 1
 0 1679.0578 l 1
EndSplineSet
EndChar

StartChar: 
Encoding: 19 115 19
Width: 1233
VWidth: 1024
Flags: HW
LayerCount: 2
Fore
SplineSet
86.096029 1938.0022 m 1
 664.0624 782.2168 l 1
 1232.9997 782.2168 l 1
 1232.9997 627.9417 l 1
 879.29435 627.9417 l 1
 301.02798 -527.994 l 1
 128.9898 -527.994 l 1
 707.11054 627.9417 l 1
 616.35121 627.9417 l 2
 586.20972404 628.028068596 560.155669649 645.380037588 547.56739 670.6872 c 0
 547.526967813 670.761590285 508.88523 748.0506 508.88523 748.0506 c 1
 0.00266886 -269.8654 l 1
 0.00266886 75.2598 l 1
 422.64042 920.5379 l 1
 0.00266886 1765.2137 l 1
 0.00266886 1938.0022 l 1
 86.096029 1938.0022 l 1
EndSplineSet
EndChar

StartChar: 
Encoding: 20 116 20
Width: 1233
VWidth: 1024
Flags: HW
LayerCount: 2
Fore
SplineSet
1146.904 1938.0022 m 1
 1232.9973 1938.0022 l 1
 1232.9973 1765.2137 l 1
 810.35958 920.5379 l 1
 1232.9973 75.2598 l 1
 1232.9973 -269.8654 l 1
 724.11477 748.0506 l 1
 724.11477 748.0506 685.473032187 670.761590285 685.43261 670.6872 c 0
 672.844330351 645.380037588 646.79027596 628.028068596 616.64879 627.9417 c 2
 525.88946 627.9417 l 1
 1104.0102 -527.994 l 1
 931.97202 -527.994 l 1
 353.70565 627.9417 l 1
 0.00026 627.9417 l 1
 0.00026 782.2168 l 1
 568.9376 782.2168 l 1
 1146.904 1938.0022 l 1
EndSplineSet
EndChar

StartChar: 
Encoding: 21 117 21
Width: 1233
VWidth: 1024
Flags: HW
LayerCount: 2
Fore
SplineSet
86.096029 -527.9992 m 1
 0.00266886 -527.9992 l 1
 0.00266886 -355.2107 l 1
 422.64042 489.4651 l 1
 0.00266886 1334.7432 l 1
 0.00266886 1679.8684 l 1
 508.88523 661.9524 l 1
 508.88523 661.9524 547.526967813 739.241409715 547.56739 739.3158 c 0
 560.155669649 764.622962412 586.20972404 781.974931404 616.35121 782.0613 c 2
 707.11054 782.0613 l 1
 128.9898 1937.997 l 1
 301.02798 1937.997 l 1
 879.29435 782.0613 l 1
 1232.9997 782.0613 l 1
 1232.9997 627.7862 l 1
 664.0624 627.7862 l 1
 86.096029 -527.9992 l 1
EndSplineSet
EndChar

StartChar: 
Encoding: 22 118 22
Width: 1233
VWidth: 1024
Flags: HW
LayerCount: 2
Fore
SplineSet
1146.904 -527.9992 m 1
 568.9376 627.7862 l 1
 0.00026 627.7862 l 1
 0.00026 782.0613 l 1
 353.70565 782.0613 l 1
 931.97202 1937.997 l 1
 1104.0102 1937.997 l 1
 525.88946 782.0613 l 1
 616.64879 782.0613 l 2
 646.79027596 781.974931404 672.844330351 764.622962412 685.43261 739.3158 c 0
 685.473032187 739.241409715 724.11477 661.9524 724.11477 661.9524 c 1
 1232.9973 1679.8684 l 1
 1232.9973 1334.7432 l 1
 810.35958 489.4651 l 1
 1232.9973 -355.2107 l 1
 1232.9973 -527.9992 l 1
 1146.904 -527.9992 l 1
EndSplineSet
EndChar

StartChar: 
Encoding: 23 119 23
Width: 1233
VWidth: 1024
Flags: HW
LayerCount: 2
Fore
SplineSet
86.547923 1938.0015 m 1
 567.88788 974.2725 l 1
 1233.0004 974.2725 l 1
 1233.0004 820.75 l 1
 644.64619 820.75 l 1
 685.28552 739.3231 l 2
 690.439911544 728.986369297 693.339933862 717.331993989 693.339933862 705.005627167 c 0
 693.339933862 692.679260346 690.439911544 680.875630703 685.28552 670.5389 c 1
 685.28552 670.688154335 644.64619 589.112 644.64619 589.112 c 1
 1233.0004 589.112 l 1
 1233.0004 435.5895 l 1
 567.88788 435.5895 l 1
 86.247926 -527.9889 l 1
 0.00331247 -527.9889 l 1
 0.00331247 -355.1997 l 1
 530.56016 705.3073 l 1
 0.00331247 1765.2135 l 1
 0.00331247 1938.0015 l 1
 86.547923 1938.0015 l 1
EndSplineSet
EndChar

StartChar: 
Encoding: 24 120 24
Width: 1233
VWidth: 1024
Flags: HW
LayerCount: 2
Fore
SplineSet
1146.4521 1937.9995 m 1
 1232.9967 1937.9995 l 1
 1232.9967 1765.2115 l 1
 702.43984 705.3053 l 1
 1232.9967 -355.2017 l 1
 1232.9967 -527.9909 l 1
 1146.7521 -527.9909 l 1
 665.11212 435.5875 l 1
 -0.00041752901 435.5875 l 1
 -0.00041752901 589.11 l 1
 588.35381 589.11 l 1
 588.35381 589.11 547.71448 670.686154335 547.71448 670.5369 c 1
 542.560088456 680.873630703 539.660066138 692.677260346 539.660066138 705.003627167 c 0
 539.660066138 717.329993989 542.560088456 728.984369297 547.71448 739.3211 c 2
 588.35381 820.748 l 1
 -0.00041752901 820.748 l 1
 -0.00041752901 974.2705 l 1
 665.11212 974.2705 l 1
 1146.4521 1937.9995 l 1
EndSplineSet
EndChar

StartChar: 
Encoding: 25 121 25
Width: 1233
VWidth: 1024
Flags: HW
LayerCount: 2
Fore
SplineSet
574.07468 1462.2968 m 0
 552.62071 1476.6645 539.79788 1500.8061 539.8795 1526.6173 c 2
 539.8795 1937.6971 l 1
 539.8795 1937.9886 l 1
 694.1295 1937.9886 l 1
 694.1295 1937.6971 l 1
 694.1295 1567.7405 l 1
 1234.0001 1207.7255 l 1
 1233.9901 1022.894 l 1
 1013.9074 1169.1909 794.0304 1315.8032 574.07468 1462.2968 c 0
EndSplineSet
EndChar

StartChar: 
Encoding: 26 122 26
Width: 1233
VWidth: 1024
Flags: HW
LayerCount: 2
Fore
SplineSet
659.91932 1462.2968 m 0
 439.9636 1315.8032 220.08659 1169.1909 -0.00030080132 1022.894 c 1
 -0.00613069 1207.7255 l 1
 539.8645 1567.7405 l 1
 539.8645 1937.6971 l 1
 539.8645 1937.9886 l 1
 694.1145 1937.9886 l 1
 694.1145 1937.6971 l 1
 694.1145 1526.6173 l 2
 694.19612 1500.8061 681.37329 1476.6645 659.91932 1462.2968 c 0
EndSplineSet
EndChar

StartChar: 
Encoding: 27 65 27
Width: 1233
VWidth: 1024
Flags: HW
LayerCount: 2
Fore
SplineSet
574.07468 -54.2798 m 1
 574.07048 -54.2798 l 1
 794.0262 92.2139 1013.9032 238.8261 1233.9901 385.123 c 1
 1234.0001 200.2915 l 1
 694.1295 -159.7234 l 1
 694.1295 -529.6801 l 1
 694.1295 -529.9715 l 1
 539.8795 -529.9715 l 1
 539.8795 -529.6801 l 1
 539.8795 -118.6003 l 2
 539.79788 -92.7891 552.62071 -68.6475 574.07468 -54.2798 c 1
EndSplineSet
EndChar

StartChar: 
Encoding: 28 66 28
Width: 1233
VWidth: 1024
Flags: HW
LayerCount: 2
Fore
SplineSet
659.91932 -54.2798 m 0
 681.37329 -68.6475 694.19612 -92.7891 694.1145 -118.6003 c 2
 694.1145 -529.6801 l 1
 694.1145 -529.9715 l 1
 539.8645 -529.9715 l 1
 539.8645 -529.6801 l 1
 539.8645 -159.7234 l 1
 -0.00613069 200.2915 l 1
 -0.00030080132 385.123 l 1
 220.08659 238.8261 439.9636 92.2139 659.91932 -54.2798 c 0
EndSplineSet
EndChar

StartChar: 
Encoding: 29 67 29
Width: 1233
VWidth: 1024
Flags: HW
LayerCount: 2
Fore
SplineSet
0.00734835 385.1142 m 1
 616.70215 -25.8154 l 1
 1234.0004 385.1142 l 1
 1234.0004 199.9851 l 1
 660.0853 -182.9267 l 2
 634.08398 -200.3784 600.0753 -200.3784 574.07398 -182.9267 c 2
 0.00734835 200.1355 l 1
 0.00734835 385.1142 l 1
EndSplineSet
EndChar

StartChar: 
Encoding: 30 68 30
Width: 1233
VWidth: 1024
Flags: HW
LayerCount: 2
Fore
SplineSet
0.00734835 1022.8998 m 1
 0.00734835 1207.8785 l 1
 574.07398 1590.9407 l 2
 600.0753 1608.3924 634.08398 1608.3924 660.0853 1590.9407 c 2
 1234.0004 1208.0289 l 1
 1234.0004 1022.8998 l 1
 616.70215 1433.8294 l 1
 0.00734835 1022.8998 l 1
EndSplineSet
EndChar

StartChar: 
Encoding: 31 69 31
Width: 1233
VWidth: 1024
Flags: HW
LayerCount: 2
Fore
SplineSet
1233.9938 1022.8902 m 1
 1028.33 1159.8202 822.66625 1296.7485 617.00249 1433.6776 c 1
 411.32708 1296.7627 205.68956 1159.7896 -0.00043051278 1022.8963 c 1
 0.00831431022 1207.8783 l 1
 539.87895 1568.1943 l 1
 539.87895 1937.6976 l 1
 539.87895 1937.9891 l 1
 694.12895 1937.9891 l 1
 694.12895 1937.6976 l 1
 694.12895 1567.741 l 1
 1233.9996 1207.8768 l 1
 1233.9938 1022.8902 l 1
EndSplineSet
EndChar

StartChar: 
Encoding: 32 70 32
Width: 1233
VWidth: 1024
Flags: HW
LayerCount: 2
Fore
SplineSet
1233.9938 385.1268 m 1
 1233.9996 200.1402 l 1
 694.12895 -159.724 l 1
 694.12895 -529.6806 l 1
 694.12895 -529.9721 l 1
 539.87895 -529.9721 l 1
 539.87895 -529.6806 l 1
 539.87895 -160.1773 l 1
 0.00831431 200.1387 l 1
 -0.00043051278 385.1207 l 1
 205.68956 248.2274 411.32708 111.2543 617.00249 -25.6606 c 1
 822.66625 111.2685 1028.33 248.1968 1233.9938 385.1268 c 1
EndSplineSet
EndChar

StartChar: 
Encoding: 33 71 33
Width: 1233
VWidth: 1024
Flags: HW
LayerCount: 2
Fore
SplineSet
1234 385.1224 m 1
 1233.99 199.9898 l 1
 138.73254 -529.9817 l 1
 -2.5000001e-05 -529.9817 l 1
 -2.5000001e-05 -437.4927 l 1
 411.51112 -163.556 822.3052 111.4595 1234 385.1224 c 1
EndSplineSet
EndChar

StartChar: 
Encoding: 34 72 34
Width: 1233
VWidth: 1024
Flags: HW
LayerCount: 2
Fore
SplineSet
1.1487195e-05 385.1224 m 1
 411.6948 111.4595 822.48888 -163.556 1234 -437.4927 c 1
 1234 -529.9817 l 1
 1095.2663 -529.9817 l 1
 0.00875631 199.9898 l 1
 1.1487195e-05 385.1224 l 1
EndSplineSet
EndChar

StartChar: 
Encoding: 35 73 35
Width: 1233
VWidth: 1024
Flags: HW
LayerCount: 2
Fore
SplineSet
0.00046380131 200.1238 m 1
 -0.00536608 385.2655 l 1
 411.09186 659.8694 823.13062 933.0669 1233.9917 1208.0272 c 1
 1233.9917 1022.8984 l 1
 822.49516 748.8877 411.66319 473.8824 0.00046380131 200.1238 c 1
EndSplineSet
EndChar

StartChar: 
Encoding: 36 74 36
Width: 1233
VWidth: 1024
Flags: HW
LayerCount: 2
Fore
SplineSet
1233.9945 200.1238 m 1
 822.33181 473.8824 411.49984 748.8877 0.00618246 1022.8984 c 1
 0.00326751 1208.0272 l 1
 410.86438 933.0669 822.90314 659.8694 1234.0045 385.2655 c 1
 1233.9945 200.1238 l 1
EndSplineSet
EndChar

StartChar: 
Encoding: 37 75 37
Width: 1233
VWidth: 1024
Flags: HW
LayerCount: 2
Fore
SplineSet
1.1487195e-05 1022.8946 m 1
 0.00875631 1208.0272 l 1
 1095.2663 1937.9988 l 1
 1234 1937.9988 l 1
 1234 1845.5097 l 1
 822.48888 1571.573 411.6948 1296.5575 1.1487195e-05 1022.8946 c 1
EndSplineSet
EndChar

StartChar: 
Encoding: 38 76 38
Width: 1233
VWidth: 1024
Flags: HW
LayerCount: 2
Fore
SplineSet
1234 1022.8956 m 1
 822.3052 1296.5585 411.51112 1571.574 -2.5000001e-05 1845.5107 c 1
 -2.5000001e-05 1937.9998 l 1
 138.73374 1937.9998 l 1
 1233.99 1208.0282 l 1
 1234 1022.8956 l 1
EndSplineSet
EndChar

StartChar: 
Encoding: 39 77 39
Width: 1233
VWidth: 1024
Flags: HW
LayerCount: 2
Fore
SplineSet
1233.9999 790.7717 m 1
 1084.1192 890.6418 l 1
 467.57341 1301.7219 l 2
 392.44945 1351.7359 347.34943 1436.3705 347.36692 1526.6183 c 2
 347.36692 1937.9998 l 1
 501.16524 1937.9998 l 1
 501.16524 1526.6183 l 2
 501.15624 1487.8073 520.66622 1451.8716 552.98421 1430.3634 c 2
 1169.5271 1019.2832 l 1
 1233.9999 976.2018 l 1
 1233.9999 790.7717 l 1
1233.9999 1253.971 m 1
 767.03445 1565.3314 l 2
 746.373391871 1579.17600582 732.761322577 1602.73787301 732.761322577 1629.45392111 c 0
 732.761322577 1629.5368019 732.838968186 1629.56918012 732.83923 1629.652 c 0
 732.761715396 1629.70247222 732.83923 1937.9998 732.83923 1937.9998 c 1
 886.48597 1937.9998 l 1
 886.48597 1670.6245 l 1
 1233.9999 1439.4014 l 1
 1233.9999 1253.971 l 1
EndSplineSet
EndChar

StartChar: 
Encoding: 40 78 40
Width: 1233
VWidth: 1024
Flags: HW
LayerCount: 2
Fore
SplineSet
-0.00487535 790.7727 m 1
 -0.00487535 976.2028 l 1
 64.467876 1019.2842 l 1
 681.01079 1430.3643 l 2
 713.32878 1451.8726 732.83876 1487.8083 732.82976 1526.6193 c 2
 732.82976 1938.0008 l 1
 886.62808 1938.0008 l 1
 886.62808 1526.6193 l 2
 886.64557 1436.3715 841.54555 1351.7369 766.42159 1301.7229 c 2
 149.87576 890.6428 l 1
 -0.00487535 790.7727 l 1
-0.00487535 1253.972 m 1
 -0.00487535 1439.4024 l 1
 347.50903 1670.6255 l 1
 347.50903 1938.0008 l 1
 501.15577 1938.0008 l 1
 501.15577 1938.0008 501.233284604 1629.70347222 501.15577 1629.653 c 0
 501.156031814 1629.57018012 501.233677423 1629.5378019 501.233677423 1629.45492111 c 0
 501.233677423 1602.73887301 487.621608129 1579.17700582 466.96055 1565.3324 c 2
 -0.00487535 1253.972 l 1
EndSplineSet
EndChar

StartChar: 
Encoding: 41 79 41
Width: 1233
VWidth: 1024
Flags: HW
LayerCount: 2
Fore
SplineSet
1233.9999 617.2423 m 1
 1233.9999 431.8122 l 1
 1169.5271 388.7308 l 1
 552.98421 -22.3494 l 2
 520.66622 -43.8576 501.15624 -79.7933 501.16524 -118.6043 c 2
 501.16524 -529.9858 l 1
 347.36692 -529.9858 l 1
 347.36692 -118.6043 l 2
 347.34943 -28.3565 392.44945 56.2781 467.57341 106.2921 c 2
 1084.1192 517.3722 l 1
 1233.9999 617.2423 l 1
1233.9999 154.043 m 1
 1233.9999 -31.3874 l 1
 886.48597 -262.6105 l 1
 886.48597 -529.9858 l 1
 732.83923 -529.9858 l 1
 732.83923 -529.9858 732.761715396 -221.688472222 732.83923 -221.638 c 0
 732.838968186 -221.555180116 732.761322577 -221.522801901 732.761322577 -221.439921108 c 0
 732.761322577 -194.723873006 746.373391871 -171.162005817 767.03445 -157.3174 c 2
 1233.9999 154.043 l 1
EndSplineSet
EndChar

StartChar: 
Encoding: 42 80 42
Width: 1233
VWidth: 1024
Flags: HW
LayerCount: 2
Fore
SplineSet
-0.00487535 617.2423 m 1
 149.87576 517.3722 l 1
 766.42159 106.2921 l 2
 841.54555 56.2781 886.64557 -28.3565 886.62808 -118.6043 c 2
 886.62808 -529.9858 l 1
 732.82976 -529.9858 l 1
 732.82976 -118.6043 l 2
 732.83876 -79.7933 713.32878 -43.8576 681.01079 -22.3494 c 2
 64.467876 388.7308 l 1
 -0.00487535 431.8122 l 1
 -0.00487535 617.2423 l 1
-0.00487535 154.043 m 1
 466.96055 -157.3174 l 2
 487.621608129 -171.162005817 501.233677423 -194.723873006 501.233677423 -221.439921108 c 0
 501.233677423 -221.522801901 501.156031814 -221.555180116 501.15577 -221.638 c 0
 501.233284604 -221.688472222 501.15577 -529.9858 501.15577 -529.9858 c 1
 347.50903 -529.9858 l 1
 347.50903 -262.6105 l 1
 -0.00487535 -31.3874 l 1
 -0.00487535 154.043 l 1
EndSplineSet
EndChar

StartChar: 
Encoding: 43 81 43
Width: 1233
VWidth: 1024
Flags: HW
LayerCount: 2
Fore
SplineSet
0.00789835 617.2423 m 1
 149.28514 517.3722 l 1
 616.70239 205.8611 l 1
 1084.1196 517.3722 l 1
 1234.0003 617.2423 l 1
 1234.0003 431.8122 l 1
 1169.5304 388.7308 l 1
 1169.5304 388.7308 659.325846568 48.7499 659.48212 48.7499 c 1
 647.267463688 40.6291339318 632.454007596 35.8958810492 616.700038284 35.8958810492 c 0
 600.946068972 35.8958810492 586.288886312 40.6291339318 574.07423 48.7499 c 2
 64.025918 388.7308 l 1
 0.00789835 431.5108 l 1
 0.00789835 617.2423 l 1
0.00789835 154.043 m 1
 552.98461 -214.8596 l 2
 591.97199 -240.7764 642.18775 -240.7764 681.17514 -214.8596 c 2
 1234.0003 153.8923 l 1
 1234.0003 -31.5381 l 1
 766.43145 -343.5008 l 2
 676.07107 -403.5667 557.93418 -403.5667 467.57381 -343.5008 c 2
 0.00789835 -31.5381 l 1
 0.00789835 154.043 l 1
EndSplineSet
EndChar

StartChar: 
Encoding: 44 82 44
Width: 1233
VWidth: 1024
Flags: HW
LayerCount: 2
Fore
SplineSet
0.00789835 790.7727 m 1
 0.00789835 976.5042 l 1
 64.025918 1019.2842 l 1
 574.07423 1359.2651 l 2
 586.288886312 1367.38586607 600.946068972 1372.11911895 616.700038284 1372.11911895 c 0
 632.454007596 1372.11911895 647.267463688 1367.38586607 659.48212 1359.2651 c 1
 659.325846568 1359.2651 1169.5304 1019.2842 1169.5304 1019.2842 c 1
 1234.0003 976.2028 l 1
 1234.0003 790.7727 l 1
 1084.1196 890.6428 l 1
 616.70239 1202.1539 l 1
 149.28514 890.6428 l 1
 0.00789835 790.7727 l 1
0.00789835 1253.972 m 1
 0.00789835 1439.5531 l 1
 467.57381 1751.5158 l 2
 557.93418 1811.5817 676.07107 1811.5817 766.43145 1751.5158 c 2
 1234.0003 1439.5531 l 1
 1234.0003 1254.1227 l 1
 681.17514 1622.8746 l 2
 642.18775 1648.7914 591.97199 1648.7914 552.98461 1622.8746 c 2
 0.00789835 1253.972 l 1
EndSplineSet
EndChar

StartChar: 
Encoding: 45 83 45
Width: 1233
VWidth: 1024
Flags: HW
LayerCount: 2
Fore
SplineSet
0.0082447 790.7727 m 1
 0.0082447 976.2028 l 1
 64.480996 1019.2842 l 1
 574.67797 1359.2651 l 2
 586.877407749 1367.35501543 601.506479551 1372.06866776 617.227796174 1372.06866776 c 0
 632.949112798 1372.06866776 647.734842251 1367.35501543 659.93428 1359.2651 c 1
 659.777622349 1359.2651 1169.5308 1019.2842 1169.5308 1019.2842 c 1
 1234.0006 976.2028 l 1
 1234.0006 790.7727 l 1
 1084.12 890.6428 l 1
 617.30613 1202.1539 l 1
 149.88888 890.6428 l 1
 0.0082447 790.7727 l 1
0.0082447 1253.972 m 1
 0.0082447 1439.4024 l 1
 347.52215 1670.6255 l 1
 347.52215 1938.0008 l 1
 501.16889 1938.0008 l 1
 501.16889 1629.653 l 2
 501.169151814 1629.57018012 501.169282819 1629.48732968 501.169282819 1629.40444889 c 0
 501.169282819 1602.68840078 487.634728129 1579.17700582 466.97367 1565.3324 c 0
 466.896155396 1565.28192778 0.0082447 1253.972 0.0082447 1253.972 c 1
1234.0006 1253.972 m 1
 767.03519 1565.3324 l 2
 746.375764724 1579.17726836 732.764974305 1602.73817685 732.764974305 1629.45296992 c 0
 732.764974305 1629.53651215 732.842613992 1629.56951965 732.84288 1629.653 c 0
 732.765373417 1629.70350389 732.84288 1938.0008 732.84288 1938.0008 c 1
 886.64121 1938.0008 l 1
 886.64121 1670.6255 l 1
 1234.0006 1439.4024 l 1
 1234.0006 1253.972 l 1
EndSplineSet
EndChar

StartChar: 
Encoding: 46 84 46
Width: 1233
VWidth: 1024
Flags: HW
LayerCount: 2
Fore
SplineSet
0.0082447 617.2423 m 1
 149.88888 517.3722 l 1
 617.30613 205.8611 l 1
 1084.12 517.3722 l 1
 1234.0006 617.2423 l 1
 1234.0006 431.8122 l 1
 1169.5308 388.7308 l 1
 1169.5308 388.7308 659.777622349 48.7499 659.93428 48.7499 c 1
 647.734842251 40.6599845719 632.949112798 35.9463322432 617.227796174 35.9463322432 c 0
 601.506479551 35.9463322432 586.877407749 40.6599845719 574.67797 48.7499 c 2
 64.480996 388.7308 l 1
 0.0082447 431.8122 l 1
 0.0082447 617.2423 l 1
0.0082447 154.043 m 1
 0.0082447 154.043 466.896155396 -157.266927778 466.97367 -157.3174 c 0
 487.634728129 -171.162005817 501.169282819 -194.673400783 501.169282819 -221.389448886 c 0
 501.169282819 -221.472329679 501.169151814 -221.555180116 501.16889 -221.638 c 2
 501.16889 -529.9858 l 1
 347.52215 -529.9858 l 1
 347.52215 -262.6105 l 1
 0.0082447 -31.3874 l 1
 0.0082447 154.043 l 1
1234.0006 154.043 m 1
 1234.0006 -31.3874 l 1
 886.64121 -262.6105 l 1
 886.64121 -529.9858 l 1
 732.84288 -529.9858 l 1
 732.84288 -529.9858 732.765373417 -221.688503886 732.84288 -221.638 c 0
 732.842613992 -221.554519653 732.764974305 -221.521512149 732.764974305 -221.437969916 c 0
 732.764974305 -194.723176849 746.375764724 -171.162268356 767.03519 -157.3174 c 2
 1234.0006 154.043 l 1
EndSplineSet
EndChar

StartChar: 
Encoding: 47 85 47
Width: 1233
VWidth: 1024
Flags: HW
LayerCount: 2
Fore
SplineSet
208.03579 -529.9791 m 1
 1234.0007 153.7467 l 1
 1234.0007 -31.8337 l 1
 486.5552 -529.9791 l 1
 208.03579 -529.9791 l 1
0.00832506 -391.3963 m 1
 0.00832506 -205.8156 l 1
 1084.2691 517.2257 l 1
 1234.0007 616.9452 l 1
 1234.0007 431.3645 l 1
 1169.6797 388.5846 l 1
 0.00832506 -391.3963 l 1
EndSplineSet
EndChar

StartChar: 
Encoding: 48 86 48
Width: 1233
VWidth: 1024
Flags: HW
LayerCount: 2
Fore
SplineSet
1025.9572 -529.9791 m 1
 747.4378 -529.9791 l 1
 -0.00768835 -31.8337 l 1
 -0.00768835 153.7467 l 1
 1025.9572 -529.9791 l 1
1233.9847 -391.3963 m 1
 64.313334 388.5846 l 1
 -0.00768835 431.3645 l 1
 -0.00768835 616.9452 l 1
 149.72393 517.2257 l 1
 1233.9847 -205.8156 l 1
 1233.9847 -391.3963 l 1
EndSplineSet
EndChar

StartChar: 
Encoding: 49 87 49
Width: 1233
VWidth: 1024
Flags: HW
LayerCount: 2
Fore
SplineSet
1233.9863 1440.006 m 1
 1233.9863 1254.124 l 1
 1169.9655 1211.3441 l 1
 -0.00681104 431.6642 l 1
 -0.00681104 617.0943 l 1
 1084.5577 1339.9853 l 1
 1233.9863 1440.006 l 1
1233.9863 976.8075 m 1
 1233.9863 791.2267 l 1
 149.7249 68.1849 l 1
 -0.00681104 -31.685 l 1
 -0.00681104 154.0462 l 1
 64.314248 196.8261 l 1
 1233.9863 976.8075 l 1
EndSplineSet
EndChar

StartChar: 
Encoding: 50 88 50
Width: 1233
VWidth: 1024
Flags: HW
LayerCount: 2
Fore
SplineSet
0.00672808 1440.006 m 1
 149.43528 1339.9853 l 1
 1233.9998 617.0943 l 1
 1233.9998 431.6642 l 1
 64.027549 1211.3441 l 1
 0.00672808 1254.124 l 1
 0.00672808 1440.006 l 1
0.00672808 976.8075 m 1
 1169.6788 196.8261 l 1
 1233.9998 154.0462 l 1
 1233.9998 -31.685 l 1
 1084.2681 68.1849 l 1
 0.00672808 791.2267 l 1
 0.00672808 976.8075 l 1
EndSplineSet
EndChar

StartChar: 
Encoding: 51 89 51
Width: 1233
VWidth: 1024
Flags: HW
LayerCount: 2
Fore
SplineSet
1025.9572 1938.0002 m 1
 -0.00768835 1254.2743 l 1
 -0.00768835 1439.8547 l 1
 747.4378 1938.0002 l 1
 1025.9572 1938.0002 l 1
1233.9847 1799.4173 m 1
 1233.9847 1613.8366 l 1
 149.72393 890.7953 l 1
 -0.00768835 791.0758 l 1
 -0.00768835 976.6565 l 1
 64.313334 1019.4364 l 1
 1233.9847 1799.4173 l 1
EndSplineSet
EndChar

StartChar: 
Encoding: 52 90 52
Width: 1233
VWidth: 1024
Flags: HW
LayerCount: 2
Fore
SplineSet
208.02779 1937.3942 m 1
 486.5472 1937.3942 l 1
 1233.9927 1439.2487 l 1
 1233.9927 1253.6683 l 1
 208.02779 1937.3942 l 1
0.00032506201 1798.8113 m 1
 1169.6717 1018.8304 l 1
 1233.9927 976.0505 l 1
 1233.9927 790.4698 l 1
 1084.2611 890.1893 l 1
 0.00032506201 1613.2306 l 1
 0.00032506201 1798.8113 l 1
EndSplineSet
EndChar

StartChar: 
Encoding: 53 48 53
Width: 1233
VWidth: 1024
Flags: HW
LayerCount: 2
Fore
SplineSet
0.00018834799 616.9392 m 1
 790.53043 89.8685 l 1
 1234.0002 385.1127 l 1
 1234.0002 200.2841 l 1
 694.12409 -159.7334 l 1
 694.12409 -529.6909 l 1
 694.12409 -529.9824 l 1
 539.87627 -529.9824 l 1
 539.87627 -529.6909 l 1
 539.87627 -391.7114 l 1
 0.000188348 -31.8455 l 1
 0.000188348 153.7381 l 1
 539.87627 -205.9792 l 1
 539.87627 -118.6092 l 2
 539.79467 -92.8118 552.61463 -68.6585 574.06871 -54.2878 c 0
 599.83692 -37.1187 625.5789 -19.935 651.34419 -2.7717 c 1
 0.000188348 431.3556 l 1
 0.00018834799 616.9392 l 1
EndSplineSet
EndChar

StartChar: 
Encoding: 54 49 54
Width: 1233
VWidth: 1024
Flags: HW
LayerCount: 2
Fore
SplineSet
1233.9998 616.9392 m 1
 1233.9998 431.3556 l 1
 582.65581 -2.7717 l 1
 608.4211 -19.935 634.16308 -37.1187 659.93129 -54.2878 c 0
 681.38537 -68.6585 694.20533 -92.8118 694.12373 -118.6092 c 2
 694.12373 -205.9792 l 1
 1233.9998 153.7381 l 1
 1233.9998 -31.8455 l 1
 694.12373 -391.7114 l 1
 694.12373 -529.6909 l 1
 694.12373 -529.9824 l 1
 539.87591 -529.9824 l 1
 539.87591 -529.6909 l 1
 539.87591 -159.7334 l 1
 -0.00017165199 200.2841 l 1
 -0.00017165199 385.1127 l 1
 443.46957 89.8685 l 1
 1233.9998 616.9392 l 1
EndSplineSet
EndChar

StartChar: 
Encoding: 55 50 55
Width: 1233
VWidth: 1024
Flags: HW
LayerCount: 2
Fore
SplineSet
0.00018834799 791.0668 m 1
 0.000188348 976.6504 l 1
 651.34419 1410.7778 l 1
 625.5789 1427.941 599.83692 1445.1247 574.06871 1462.2938 c 0
 552.61463 1476.6645 539.79467 1500.8178 539.87627 1526.6152 c 2
 539.87627 1613.9852 l 1
 0.000188348 1254.2679 l 1
 0.000188348 1439.8515 l 1
 539.87627 1799.7174 l 1
 539.87627 1937.6969 l 1
 539.87627 1937.9884 l 1
 694.12409 1937.9884 l 1
 694.12409 1937.6969 l 1
 694.12409 1567.7394 l 1
 1234.0002 1207.7219 l 1
 1234.0002 1022.8933 l 1
 790.53043 1318.1375 l 1
 0.00018834799 791.0668 l 1
EndSplineSet
EndChar

StartChar: 
Encoding: 56 51 56
Width: 1233
VWidth: 1024
Flags: HW
LayerCount: 2
Fore
SplineSet
1233.9998 791.0668 m 1
 443.46957 1318.1375 l 1
 -0.00017165199 1022.8933 l 1
 -0.00017165199 1207.7219 l 1
 539.87591 1567.7394 l 1
 539.87591 1937.6969 l 1
 539.87591 1937.9884 l 1
 694.12373 1937.9884 l 1
 694.12373 1937.6969 l 1
 694.12373 1799.7174 l 1
 1233.9998 1439.8515 l 1
 1233.9998 1254.2679 l 1
 694.12373 1613.9852 l 1
 694.12373 1526.6152 l 2
 694.20533 1500.8178 681.38537 1476.6645 659.93129 1462.2938 c 0
 634.16308 1445.1247 608.4211 1427.941 582.65581 1410.7778 c 1
 1233.9998 976.6504 l 1
 1233.9998 791.0668 l 1
EndSplineSet
EndChar

StartChar: 
Encoding: 57 52 57
Width: 1233
VWidth: 1024
Flags: HW
LayerCount: 2
Fore
SplineSet
0.008304 1022.9008 m 1
 0.008304 1207.8801 l 1
 347.37032 1439.7055 l 1
 347.37032 1938.0032 l 1
 501.01693 1938.0032 l 1
 501.01693 1542.1366 l 1
 574.07413 1590.9415 l 2
 600.07541 1608.402 634.08404 1608.402 660.08533 1590.9415 c 2
 732.84229 1542.4368 l 1
 732.84229 1938.0032 l 1
 886.4889 1938.0032 l 1
 886.4889 1439.8571 l 1
 1233.9996 1208.0317 l 1
 1233.9996 1022.9008 l 1
 616.70224 1433.8319 l 1
 0.008304 1022.9008 l 1
EndSplineSet
EndChar

StartChar: 
Encoding: 58 53 58
Width: 1233
VWidth: 1024
Flags: HW
LayerCount: 2
Fore
SplineSet
0.008304 385.1172 m 1
 616.70224 -25.8139 l 1
 1233.9996 385.1172 l 1
 1233.9996 199.9863 l 1
 886.4889 -31.8391 l 1
 886.4889 -529.9852 l 1
 732.84229 -529.9852 l 1
 732.84229 -134.4188 l 1
 660.08533 -182.9234 l 2
 634.08404 -200.3839 600.07541 -200.3839 574.07413 -182.9234 c 2
 501.01693 -134.1186 l 1
 501.01693 -529.9852 l 1
 347.37032 -529.9852 l 1
 347.37032 -31.6875 l 1
 0.008304 200.1379 l 1
 0.008304 385.1172 l 1
EndSplineSet
EndChar

StartChar: 
Encoding: 59 54 59
Width: 1233
VWidth: 1024
Flags: HW
LayerCount: 2
Fore
SplineSet
1233.9911 617.2396 m 1
 1233.9911 431.808 l 1
 552.97446 -22.3528 l 2
 520.65641 -43.8651 501.14666 -79.7977 501.1554 -118.6073 c 2
 501.1554 -529.9912 l 1
 347.35977 -529.9912 l 1
 347.35977 -118.6073 l 2
 347.35377 -91.4691 351.52815 -64.8615 359.25276 -39.5247 c 1
 -0.003068 199.9821 l 1
 -0.003068 385.1134 l 1
 148.26291 286.5531 296.40354 187.7713 444.51794 88.9662 c 1
 451.86361 95.0876 459.50078 100.9175 467.57519 106.281 c 2
 1233.9911 617.2396 l 1
1233.9911 154.0396 m 1
 1233.9911 -31.392 l 1
 886.47962 -262.6145 l 1
 886.47962 -529.9912 l 1
 732.83265 -529.9912 l 1
 732.83265 -221.642 l 2
 732.75105 -195.8447 745.57098 -171.6885 767.025 -157.3207 c 2
 1233.9911 154.0396 l 1
EndSplineSet
EndChar

StartChar: 
Encoding: 60 55 60
Width: 1233
VWidth: 1024
Flags: HW
LayerCount: 2
Fore
SplineSet
0.00587832 617.2396 m 1
 766.42181 106.281 l 2
 774.49622 100.9175 782.13339 95.0876 789.47906 88.9662 c 1
 937.59346 187.7713 1085.7341 286.5531 1234.0001 385.1134 c 1
 1234.0001 199.9821 l 1
 874.74424 -39.5247 l 1
 882.46885 -64.8615 886.64323 -91.4691 886.63723 -118.6073 c 2
 886.63723 -529.9912 l 1
 732.8416 -529.9912 l 1
 732.8416 -118.6073 l 2
 732.85034 -79.7977 713.34059 -43.8651 681.02254 -22.3528 c 2
 0.00587832 431.808 l 1
 0.00587832 617.2396 l 1
0.00587832 154.0396 m 1
 466.972 -157.3207 l 2
 488.42602 -171.6885 501.24595 -195.8447 501.16435 -221.642 c 2
 501.16435 -529.9912 l 1
 347.51738 -529.9912 l 1
 347.51738 -262.6145 l 1
 0.00587832 -31.392 l 1
 0.00587832 154.0396 l 1
EndSplineSet
EndChar

StartChar: 
Encoding: 61 56 61
Width: 1233
VWidth: 1024
Flags: HW
LayerCount: 2
Fore
SplineSet
1233.9941 790.7694 m 1
 467.57819 1301.728 l 2
 459.50378 1307.0915 451.86661 1312.9214 444.52094 1319.0428 c 1
 296.40654 1220.2377 148.26591 1121.4559 -6.7999994e-05 1022.8956 c 1
 -6.7999994e-05 1208.0269 l 1
 359.25576 1447.5337 l 1
 351.53115 1472.8705 347.35677 1499.4781 347.36277 1526.6163 c 2
 347.36277 1938.0002 l 1
 501.1584 1938.0002 l 1
 501.1584 1526.6163 l 2
 501.14966 1487.8067 520.65941 1451.8741 552.97746 1430.3618 c 2
 1233.9941 976.201 l 1
 1233.9941 790.7694 l 1
1233.9941 1253.9694 m 1
 767.028 1565.3297 l 2
 745.57398 1579.6975 732.75405 1603.8537 732.83565 1629.651 c 2
 732.83565 1938.0002 l 1
 886.48262 1938.0002 l 1
 886.48262 1670.6235 l 1
 1233.9941 1439.401 l 1
 1233.9941 1253.9694 l 1
EndSplineSet
EndChar

StartChar: 
Encoding: 62 57 62
Width: 1233
VWidth: 1024
Flags: HW
LayerCount: 2
Fore
SplineSet
0.00587832 790.7724 m 1
 0.00587832 976.204 l 1
 681.02254 1430.3648 l 2
 713.34059 1451.8771 732.85034 1487.8097 732.8416 1526.6193 c 2
 732.8416 1938.0032 l 1
 886.63723 1938.0032 l 1
 886.63723 1526.6193 l 2
 886.64323 1499.4811 882.46885 1472.8735 874.74424 1447.5367 c 1
 1234.0001 1208.0299 l 1
 1234.0001 1022.8986 l 1
 1085.7341 1121.4589 937.59346 1220.2407 789.47906 1319.0458 c 1
 782.13339 1312.9244 774.49622 1307.0945 766.42181 1301.731 c 2
 0.00587832 790.7724 l 1
0.00587832 1253.9724 m 1
 0.00587832 1439.404 l 1
 347.51738 1670.6265 l 1
 347.51738 1938.0032 l 1
 501.16435 1938.0032 l 1
 501.16435 1629.654 l 2
 501.24595 1603.8567 488.42602 1579.7005 466.972 1565.3327 c 2
 0.00587832 1253.9724 l 1
EndSplineSet
EndChar

StartChar: 
Encoding: 63 44 63
Width: 1233
VWidth: 1024
Flags: HW
LayerCount: 2
Fore
SplineSet
539.87818 -529.9911 m 2
 539.87818 -529.8921 539.87818 -529.79 539.87818 -529.6996 c 2
 539.87818 -377.2565 l 1
 514.63472 -369.736 490.20453 -358.5717 467.57287 -343.516 c 2
 0.00335368 -31.5523 l 1
 0.00335368 154.0309 l 1
 552.98379 -214.8735 l 2
 591.97124 -240.7874 642.18415 -240.7874 681.1716 -214.8735 c 2
 1234.0005 153.8793 l 1
 1234.0005 -31.5523 l 1
 766.43095 -343.516 l 2
 743.81094 -358.5571 719.36909 -369.7505 694.12563 -377.2565 c 1
 694.12563 -529.6996 l 1
 694.12563 -529.8483 l 1
 694.12563 -529.9999 l 1
 539.87818 -529.9911 l 2
616.85033 35.7918 m 0
 601.63429 35.7918 586.7389 40.3099 574.07053 48.7341 c 0
 382.75076 176.3769 191.22985 303.7164 0.00335368 431.4961 c 1
 0.00335368 617.2279 l 1
 616.70167 205.8441 l 1
 1234.0005 617.2279 l 1
 1234.0005 431.7964 l 1
 1042.5903 303.9642 851.00237 176.3973 659.48146 48.7341 c 0
 646.85973 40.3099 632.02264 35.8209 616.85033 35.7918 c 0
EndSplineSet
EndChar

StartChar: 
Encoding: 64 46 64
Width: 1233
VWidth: 1024
Flags: HW
LayerCount: 2
Fore
SplineSet
539.87818 1938.0031 m 2
 694.12563 1938.0119 l 1
 694.12563 1937.8603 l 1
 694.12563 1937.7116 l 1
 694.12563 1785.2685 l 1
 719.36909 1777.7625 743.81094 1766.5691 766.43095 1751.528 c 2
 1234.0005 1439.5643 l 1
 1234.0005 1254.1327 l 1
 681.1716 1622.8855 l 2
 642.18415 1648.7994 591.97124 1648.7994 552.98379 1622.8855 c 2
 0.00335368 1253.9812 l 1
 0.00335368 1439.5643 l 1
 467.57287 1751.528 l 2
 490.20453 1766.5837 514.63472 1777.748 539.87818 1785.2685 c 1
 539.87818 1937.7116 l 2
 539.87818 1937.802 539.87818 1937.9041 539.87818 1938.0031 c 2
616.85033 1372.2202 m 0
 632.02264 1372.1911 646.85973 1367.7021 659.48146 1359.2779 c 0
 851.00237 1231.6147 1042.5903 1104.0478 1234.0005 976.2156 c 1
 1234.0005 790.7841 l 1
 616.70167 1202.1679 l 1
 0.00335368 790.7841 l 1
 0.00335368 976.5159 l 1
 191.22985 1104.2956 382.75076 1231.6352 574.07053 1359.2779 c 0
 586.7389 1367.7021 601.63429 1372.2202 616.85033 1372.2202 c 0
EndSplineSet
EndChar

StartChar: 
Encoding: 65 59 65
Width: 1233
VWidth: 1024
Flags: HW
LayerCount: 2
Fore
SplineSet
617.55351 -39.9944 m 0
 633.271954139 -40.0261251026 647.97321984 -44.8187480305 660.15522 -52.94 c 2
 1234 -435.152 l 1
 1234 -527.8825 l 1
 1094.6033 -527.8825 l 1
 617.55351 -209.3473 l 1
 139.75102 -527.8825 l 1
 0.80578423 -527.8825 l 1
 0.80578423 -435.152 l 1
 0.80578423 -435.152 574.879170415 -52.8940049265 574.8012 -52.94 c 1
 587.02286927 -44.7923669852 601.776752494 -39.9953706553 617.55351 -39.9944 c 0
EndSplineSet
EndChar

StartChar: 
Encoding: 66 58 66
Width: 1233
VWidth: 1024
Flags: HW
LayerCount: 2
Fore
SplineSet
617.55351 1449.6062 m 0
 601.776752494 1449.60717066 587.02286927 1454.40416699 574.8012 1462.5518 c 1
 574.879170415 1462.50580493 0.80578423 1844.7638 0.80578423 1844.7638 c 1
 0.80578423 1937.4943 l 1
 139.75102 1937.4943 l 1
 617.55351 1618.9591 l 1
 1094.6033 1937.4943 l 1
 1234 1937.4943 l 1
 1234 1844.7638 l 1
 660.15522 1462.5518 l 2
 647.97321984 1454.43054803 633.271954139 1449.6379251 617.55351 1449.6062 c 0
EndSplineSet
EndChar

StartChar: 
Encoding: 67 33 67
Width: 1233
VWidth: 1024
Flags: HW
LayerCount: 2
Fore
SplineSet
1095.2054 1938.5051 m 1
 1234 1938.5051 l 1
 1234 1845.1725 l 1
 694.32712 1486.1432 l 1
 694.32712 -75.6718 l 1
 1234 -435.4535 l 1
 1234 -527.8831 l 1
 1094.4529 -527.8831 l 1
 1094.4529 -527.8831 574.427131185 -180.94705723 574.34967 -180.8966 c 0
 553.702645658 -167.060859089 540.177364069 -143.565094423 540.177364069 -116.86685275 c 0
 540.177364069 -116.78367117 540.177496112 -116.700520188 540.17776 -116.6174 c 2
 540.17776 -116.6174 540.100305921 1527.65243927 540.17776 1527.6913 c 0
 540.300950245 1554.2394411 553.796420771 1577.59570386 574.34967 1591.3684 c 2
 1095.2054 1938.5051 l 1
EndSplineSet
EndChar

StartChar: 
Encoding: 68 63 68
Width: 1233
VWidth: 1024
Flags: HW
LayerCount: 2
Fore
SplineSet
138.79461 1938 m 1
 659.65033 1590.8633 l 2
 680.203579229 1577.09060386 693.699049755 1553.7343411 693.82224 1527.1862 c 0
 693.899694079 1527.14733927 693.82224 -117.1225 693.82224 -117.1225 c 2
 693.822503888 -117.205620188 693.822635931 -117.28877117 693.822635931 -117.37195275 c 0
 693.822635931 -144.070194423 680.297354342 -167.565959089 659.65033 -181.4017 c 0
 659.572868815 -181.45215723 139.54705 -528.3882 139.54705 -528.3882 c 1
 -2.0231439e-05 -528.3882 l 1
 -2.0231439e-05 -435.9586 l 1
 539.67288 -76.1769 l 1
 539.67288 1485.6381 l 1
 -2.0231439e-05 1844.6674 l 1
 -2.0231439e-05 1938 l 1
 138.79461 1938 l 1
EndSplineSet
EndChar

StartChar: 
Encoding: 69 40 69
Width: 1233
VWidth: 1024
Flags: HW
LayerCount: 2
Fore
SplineSet
139.24575 1938 m 1
 659.65023 1590.8633 l 2
 680.203367197 1577.09054363 693.698727098 1553.73429742 693.82185 1527.1862 c 0
 693.899303304 1527.14733616 693.82185 -76.1769 693.82185 -76.1769 c 1
 1233.1938 -435.5071 l 1
 1233.1938 -528.3882 l 1
 1093.9477 -528.3882 l 1
 616.89763 -209.853 l 1
 138.94483 -528.3882 l 1
 -0.000408 -528.3882 l 1
 -0.000408 -435.5071 l 1
 539.52218 -76.1769 l 1
 539.52218 1485.6381 l 1
 -0.000408 1845.2696 l 1
 -0.000408 1938 l 1
 139.24575 1938 l 1
EndSplineSet
EndChar

StartChar: 
Encoding: 70 41 70
Width: 1233
VWidth: 1024
Flags: HW
LayerCount: 2
Fore
SplineSet
1094.7539 1938 m 1
 1234 1938 l 1
 1234 1845.2696 l 1
 694.47742 1485.6381 l 1
 694.47742 -76.1769 l 1
 1234 -435.5071 l 1
 1234 -528.3882 l 1
 1095.0548 -528.3882 l 1
 617.10197 -209.853 l 1
 140.05192 -528.3882 l 1
 0.80576846 -528.3882 l 1
 0.80576846 -435.5071 l 1
 540.17775 -76.1769 l 1
 540.17775 -76.1769 540.100296696 1527.14733616 540.17775 1527.1862 c 0
 540.300872902 1553.73429742 553.796232803 1577.09054363 574.34937 1590.8633 c 2
 1094.7539 1938 l 1
EndSplineSet
EndChar

StartChar: 
Encoding: 71 60 71
Width: 1233
VWidth: 1024
Flags: HW
LayerCount: 2
Fore
SplineSet
139.24575 -528.3882 m 1
 -0.000408 -528.3882 l 1
 -0.000408 -435.6578 l 1
 539.52218 -76.0263 l 1
 539.52218 1485.7887 l 1
 -0.000408 1845.1189 l 1
 -0.000408 1938 l 1
 138.94483 1938 l 1
 616.89763 1619.4648 l 1
 1093.9477 1938 l 1
 1233.1938 1938 l 1
 1233.1938 1845.1189 l 1
 693.82185 1485.7887 l 1
 693.82185 1485.7887 693.899303304 -117.535536162 693.82185 -117.5744 c 0
 693.698727098 -144.122497418 680.203367197 -167.47874363 659.65023 -181.2515 c 2
 139.24575 -528.3882 l 1
EndSplineSet
EndChar

StartChar: 
Encoding: 72 62 72
Width: 1233
VWidth: 1024
Flags: HW
LayerCount: 2
Fore
SplineSet
1094.7539 -528.8933 m 1
 574.34937 -181.7566 l 2
 553.796232803 -167.98384363 540.300872902 -144.627597418 540.17775 -118.0795 c 0
 540.100296696 -118.040636162 540.17775 1485.2836 540.17775 1485.2836 c 1
 0.80576846 1844.6138 l 1
 0.80576846 1937.4949 l 1
 140.05192 1937.4949 l 1
 617.10197 1618.9597 l 1
 1095.0548 1937.4949 l 1
 1234 1937.4949 l 1
 1234 1844.6138 l 1
 694.47742 1485.2836 l 1
 694.47742 -76.5314 l 1
 1234 -436.1629 l 1
 1234 -528.8933 l 1
 1094.7539 -528.8933 l 1
EndSplineSet
EndChar

StartChar: 
Encoding: 73 43 73
Width: 1233
VWidth: 1024
Flags: HW
LayerCount: 2
Fore
SplineSet
0.00044329039 1938 m 1
 140.20078 1938 l 1
 617.72592 1619.9512 l 1
 1095.1004 1938 l 1
 1233.6444 1938 l 1
 1233.6444 1844.6333 l 1
 695.12989 1486.678 l 1
 695.12989 -77.9659 l 1
 1233.6444 -435.9215 l 1
 1233.6444 -529.2879 l 1
 1095.4014 -529.2879 l 1
 617.72592 -211.0884 l 1
 140.5021 -529.2879 l 1
 0.00044329039 -529.2879 l 1
 0.00044329039 -437.4272 l 1
 540.9243 -76.7612 l 1
 540.9243 1485.6237 l 1
 0.00044329039 1845.3863 l 1
 0.00044329039 1938 l 1
EndSplineSet
EndChar
